<mxfile host="app.diagrams.net" modified="2022-08-20T21:18:58.254Z" agent="5.0 (Windows)" etag="8Yz3zD1GSBBONAry1VuP" version="20.2.5" type="github">
  <diagram id="RtKDkZXLekao4AofPfH7" name="Pagina-1">
    <mxGraphModel dx="1673" dy="-284" grid="1" gridSize="10" guides="1" tooltips="1" connect="1" arrows="1" fold="1" page="1" pageScale="1" pageWidth="827" pageHeight="1169" math="0" shadow="0">
      <root>
        <mxCell id="0" />
        <mxCell id="1" parent="0" />
        <mxCell id="fUTgCYwdAWdXHMsG8nzH-1" value="" style="strokeWidth=2;html=1;shape=mxgraph.flowchart.annotation_2;align=left;labelPosition=right;pointerEvents=1;fillStyle=auto;fontFamily=Verdana;fontSize=10;fillColor=#87CEFA;gradientColor=none;rotation=-90;fontColor=#000000;" vertex="1" parent="1">
          <mxGeometry x="575.3" y="1945" width="36.85" height="195" as="geometry" />
        </mxCell>
        <mxCell id="fUTgCYwdAWdXHMsG8nzH-3" value="&lt;div&gt;&lt;font style=&quot;font-size: 10px;&quot; face=&quot;Verdana&quot;&gt;♂ &lt;b&gt;Ernst Soender&lt;/b&gt;&lt;br&gt;&lt;/font&gt;&lt;/div&gt;&lt;div&gt;&lt;font style=&quot;font-size: 10px;&quot; face=&quot;Verdana&quot;&gt;(08/09/1932 - &lt;b&gt;† &lt;/b&gt;26/08/1991)&lt;/font&gt;&lt;/div&gt;" style="rounded=1;whiteSpace=wrap;html=1;fillStyle=auto;strokeColor=#00BFFF;fillColor=#87CEFA;gradientColor=none;fontFamily=Verdana;fontSize=10;fontColor=#000000;" vertex="1" parent="1">
          <mxGeometry x="607.3099999999998" y="1959.08" width="121" height="70" as="geometry" />
        </mxCell>
        <mxCell id="fUTgCYwdAWdXHMsG8nzH-4" value="&lt;div&gt;&lt;font style=&quot;font-size: 10px;&quot;&gt;♀ &lt;b&gt;Jagrani &lt;br&gt;&lt;/b&gt;&lt;/font&gt;&lt;/div&gt;&lt;div&gt;&lt;font style=&quot;font-size: 10px;&quot;&gt;&lt;b&gt;Sobnath&lt;br&gt;&lt;/b&gt;&lt;/font&gt;&lt;/div&gt;&lt;div&gt;&lt;font style=&quot;font-size: 10px;&quot; size=&quot;3&quot;&gt;(././19. - &lt;b&gt;† &lt;/b&gt;31/08/1970)&lt;/font&gt;&lt;font size=&quot;3&quot;&gt;&lt;i&gt;&lt;br&gt;&lt;/i&gt;&lt;/font&gt;&lt;/div&gt;" style="rounded=1;whiteSpace=wrap;html=1;fillColor=#FFC0CB;strokeColor=#FF1493;fillStyle=auto;fontFamily=Verdana;fontSize=10;fontColor=#000000;" vertex="1" parent="1">
          <mxGeometry x="467.21000000000004" y="1959.08" width="118.69" height="70" as="geometry" />
        </mxCell>
        <mxCell id="fUTgCYwdAWdXHMsG8nzH-5" value="" style="line;strokeWidth=2;html=1;fillStyle=auto;fontFamily=Verdana;fontSize=10;fillColor=#87CEFA;gradientColor=none;fontColor=#000000;" vertex="1" parent="1">
          <mxGeometry x="9.639999999999986" y="2056.08" width="810" height="10" as="geometry" />
        </mxCell>
        <mxCell id="fUTgCYwdAWdXHMsG8nzH-6" value="" style="line;strokeWidth=2;direction=south;html=1;fillStyle=auto;fontFamily=Verdana;fontSize=10;fillColor=#87CEFA;gradientColor=none;fontColor=#000000;" vertex="1" parent="1">
          <mxGeometry x="5.639999999999986" y="2061.08" width="10" height="21" as="geometry" />
        </mxCell>
        <mxCell id="fUTgCYwdAWdXHMsG8nzH-7" value="" style="shape=umlActor;verticalLabelPosition=bottom;verticalAlign=top;html=1;outlineConnect=0;fillStyle=auto;fontFamily=Verdana;fontSize=10;fontColor=#000000;strokeColor=#FF1493;strokeWidth=2;fillColor=#FFC0CB;gradientColor=none;" vertex="1" parent="1">
          <mxGeometry x="15.629999999999995" y="2181.08" width="15.01" height="20" as="geometry" />
        </mxCell>
        <mxCell id="fUTgCYwdAWdXHMsG8nzH-8" value="" style="line;strokeWidth=2;direction=south;html=1;fillStyle=auto;fontFamily=Verdana;fontSize=10;fillColor=#87CEFA;gradientColor=none;fontColor=#000000;" vertex="1" parent="1">
          <mxGeometry x="103.28999999999996" y="2061.08" width="10" height="21" as="geometry" />
        </mxCell>
        <mxCell id="fUTgCYwdAWdXHMsG8nzH-9" value="" style="line;strokeWidth=2;direction=south;html=1;fillStyle=auto;fontFamily=Verdana;fontSize=10;fillColor=#87CEFA;gradientColor=none;fontColor=#000000;" vertex="1" parent="1">
          <mxGeometry x="234.95" y="2061.08" width="10" height="21" as="geometry" />
        </mxCell>
        <mxCell id="fUTgCYwdAWdXHMsG8nzH-10" value="" style="line;strokeWidth=2;direction=south;html=1;fillStyle=auto;fontFamily=Verdana;fontSize=10;fillColor=#87CEFA;gradientColor=none;fontColor=#000000;" vertex="1" parent="1">
          <mxGeometry x="356.3299999999999" y="2061.08" width="10" height="21" as="geometry" />
        </mxCell>
        <mxCell id="fUTgCYwdAWdXHMsG8nzH-11" value="" style="line;strokeWidth=2;direction=south;html=1;fillStyle=auto;fontFamily=Verdana;fontSize=10;fillColor=#87CEFA;gradientColor=none;fontColor=#000000;" vertex="1" parent="1">
          <mxGeometry x="448.12" y="2061.08" width="10" height="21" as="geometry" />
        </mxCell>
        <mxCell id="fUTgCYwdAWdXHMsG8nzH-12" value="" style="line;strokeWidth=2;direction=south;html=1;fillStyle=auto;fontFamily=Verdana;fontSize=10;fillColor=#87CEFA;gradientColor=none;fontColor=#000000;" vertex="1" parent="1">
          <mxGeometry x="536.12" y="2061.08" width="10" height="21" as="geometry" />
        </mxCell>
        <mxCell id="fUTgCYwdAWdXHMsG8nzH-13" value="" style="line;strokeWidth=2;direction=south;html=1;fillStyle=auto;fontFamily=Verdana;fontSize=10;fillColor=#87CEFA;gradientColor=none;fontColor=#000000;" vertex="1" parent="1">
          <mxGeometry x="714.64" y="2060.08" width="10" height="21" as="geometry" />
        </mxCell>
        <mxCell id="fUTgCYwdAWdXHMsG8nzH-14" value="&lt;div&gt;&lt;font style=&quot;font-size: 10px;&quot;&gt;♀ &lt;b&gt;Urmiladevi&lt;br&gt;&lt;/b&gt;&lt;/font&gt;&lt;/div&gt;&lt;div&gt;&lt;font style=&quot;font-size: 10px;&quot; size=&quot;3&quot;&gt;(18/05/1957)&lt;/font&gt;&lt;font size=&quot;3&quot;&gt;&lt;i&gt;&lt;br&gt;&lt;/i&gt;&lt;/font&gt;&lt;/div&gt;" style="rounded=1;whiteSpace=wrap;html=1;fillColor=#FFC0CB;strokeColor=#FF1493;fillStyle=auto;fontFamily=Verdana;fontSize=10;fontColor=#000000;" vertex="1" parent="1">
          <mxGeometry x="192.28999999999996" y="2080.08" width="84.69" height="80" as="geometry" />
        </mxCell>
        <mxCell id="fUTgCYwdAWdXHMsG8nzH-15" value="&lt;div&gt;&lt;font style=&quot;font-size: 10px;&quot; face=&quot;Verdana&quot;&gt;♂ &lt;b&gt;Roy&lt;/b&gt;&lt;br&gt;&lt;/font&gt;&lt;/div&gt;&lt;div&gt;&lt;font style=&quot;font-size: 10px;&quot; face=&quot;Verdana&quot;&gt;( /./1956 - &lt;b&gt;†&lt;/b&gt; 1956)&lt;/font&gt;&lt;/div&gt;" style="rounded=1;whiteSpace=wrap;html=1;fillStyle=auto;strokeColor=#00BFFF;fillColor=#87CEFA;gradientColor=none;fontFamily=Verdana;fontSize=10;fontColor=#000000;" vertex="1" parent="1">
          <mxGeometry x="99.79999999999995" y="2080.08" width="85" height="80" as="geometry" />
        </mxCell>
        <mxCell id="fUTgCYwdAWdXHMsG8nzH-16" value="&lt;div&gt;&lt;font style=&quot;font-size: 10px;&quot;&gt;♀ &lt;b&gt;Carmen Premlata&lt;br&gt;&lt;/b&gt;&lt;/font&gt;&lt;/div&gt;&lt;div&gt;&lt;font style=&quot;font-size: 10px;&quot; size=&quot;3&quot;&gt;(21/09/1959)&lt;/font&gt;&lt;font size=&quot;3&quot;&gt;&lt;i&gt;&lt;br&gt;&lt;/i&gt;&lt;/font&gt;&lt;/div&gt;" style="rounded=1;whiteSpace=wrap;html=1;fillColor=#FFC0CB;strokeColor=#FF1493;fillStyle=auto;fontFamily=Verdana;fontSize=10;fontColor=#000000;" vertex="1" parent="1">
          <mxGeometry x="284.6500000000001" y="2080.08" width="84.69" height="80" as="geometry" />
        </mxCell>
        <mxCell id="fUTgCYwdAWdXHMsG8nzH-17" value="" style="line;strokeWidth=2;direction=south;html=1;fillStyle=auto;fontFamily=Verdana;fontSize=10;fillColor=#87CEFA;gradientColor=none;fontColor=#000000;" vertex="1" parent="1">
          <mxGeometry x="10.949999999999989" y="2160.08" width="10" height="20" as="geometry" />
        </mxCell>
        <mxCell id="fUTgCYwdAWdXHMsG8nzH-18" value="&lt;div align=&quot;center&quot;&gt;&lt;br&gt;&lt;/div&gt;" style="shape=umlActor;verticalLabelPosition=bottom;verticalAlign=top;html=1;outlineConnect=0;fillStyle=auto;fontFamily=Verdana;fontSize=10;fontColor=#000000;strokeColor=#00BFFF;strokeWidth=2;fillColor=#87CEFA;gradientColor=none;align=center;" vertex="1" parent="1">
          <mxGeometry x="0.5999999999999943" y="2181.08" width="14.69" height="20" as="geometry" />
        </mxCell>
        <mxCell id="fUTgCYwdAWdXHMsG8nzH-19" value="&lt;div align=&quot;center&quot;&gt;&lt;br&gt;&lt;/div&gt;" style="shape=umlActor;verticalLabelPosition=bottom;verticalAlign=top;html=1;outlineConnect=0;fillStyle=auto;fontFamily=Verdana;fontSize=10;fontColor=#000000;strokeColor=#00BFFF;strokeWidth=2;fillColor=#87CEFA;gradientColor=none;align=center;" vertex="1" parent="1">
          <mxGeometry x="31.639999999999986" y="2181.08" width="14.69" height="20" as="geometry" />
        </mxCell>
        <mxCell id="fUTgCYwdAWdXHMsG8nzH-20" value="Aloysius" style="text;html=1;strokeColor=none;fillColor=none;align=center;verticalAlign=middle;whiteSpace=wrap;rounded=0;fillStyle=auto;fontFamily=Verdana;fontSize=8;fontColor=#000000;rotation=-90;" vertex="1" parent="1">
          <mxGeometry x="-11" y="2213.08" width="40" height="18" as="geometry" />
        </mxCell>
        <mxCell id="fUTgCYwdAWdXHMsG8nzH-21" value="Rachella" style="text;html=1;strokeColor=none;fillColor=none;align=center;verticalAlign=middle;whiteSpace=wrap;rounded=0;fillStyle=auto;fontFamily=Verdana;fontSize=8;fontColor=#000000;rotation=-90;" vertex="1" parent="1">
          <mxGeometry x="4.139999999999986" y="2213.08" width="40" height="18" as="geometry" />
        </mxCell>
        <mxCell id="fUTgCYwdAWdXHMsG8nzH-22" value="Eumir" style="text;html=1;strokeColor=none;fillColor=none;align=center;verticalAlign=middle;whiteSpace=wrap;rounded=0;fillStyle=auto;fontFamily=Verdana;fontSize=8;fontColor=#000000;rotation=-90;" vertex="1" parent="1">
          <mxGeometry x="18.98999999999998" y="2213.08" width="40" height="18" as="geometry" />
        </mxCell>
        <mxCell id="fUTgCYwdAWdXHMsG8nzH-23" value="&lt;div&gt;&lt;font style=&quot;font-size: 10px;&quot; face=&quot;Verdana&quot;&gt;♂ &lt;b&gt;John Anand&lt;/b&gt;&lt;br&gt;&lt;/font&gt;&lt;/div&gt;&lt;div&gt;&lt;font style=&quot;font-size: 10px;&quot; face=&quot;Verdana&quot;&gt;(20/01/1963)&lt;/font&gt;&lt;/div&gt;" style="rounded=1;whiteSpace=wrap;html=1;fillStyle=auto;strokeColor=#00BFFF;fillColor=#87CEFA;gradientColor=none;fontFamily=Verdana;fontSize=10;fontColor=#000000;" vertex="1" parent="1">
          <mxGeometry x="378.03" y="2079.08" width="85" height="80" as="geometry" />
        </mxCell>
        <mxCell id="fUTgCYwdAWdXHMsG8nzH-24" value="&lt;div&gt;&lt;font style=&quot;font-size: 10px;&quot;&gt;♀ &lt;b&gt;Sandra Gaitrie&lt;br&gt;&lt;/b&gt;&lt;/font&gt;&lt;/div&gt;&lt;div&gt;&lt;font style=&quot;font-size: 10px;&quot; size=&quot;3&quot;&gt;(07/02/1965)&lt;/font&gt;&lt;font size=&quot;3&quot;&gt;&lt;i&gt;&lt;br&gt;&lt;/i&gt;&lt;/font&gt;&lt;/div&gt;" style="rounded=1;whiteSpace=wrap;html=1;fillColor=#FFC0CB;strokeColor=#FF1493;fillStyle=auto;fontFamily=Verdana;fontSize=10;fontColor=#000000;" vertex="1" parent="1">
          <mxGeometry x="513.84" y="2080.08" width="84.69" height="80" as="geometry" />
        </mxCell>
        <mxCell id="fUTgCYwdAWdXHMsG8nzH-25" value="&lt;div&gt;&lt;font style=&quot;font-size: 10px;&quot; face=&quot;Verdana&quot;&gt;♂ &lt;b&gt;Marlon Kailash&lt;/b&gt;&lt;br&gt;&lt;/font&gt;&lt;/div&gt;&lt;div&gt;&lt;font style=&quot;font-size: 10px;&quot; face=&quot;Verdana&quot;&gt;(03/04/1967 )&lt;/font&gt;&lt;/div&gt;" style="rounded=1;whiteSpace=wrap;html=1;fillStyle=auto;strokeColor=#00BFFF;fillColor=#87CEFA;gradientColor=none;fontFamily=Verdana;fontSize=10;fontColor=#000000;" vertex="1" parent="1">
          <mxGeometry x="644.64" y="2079.08" width="85" height="80" as="geometry" />
        </mxCell>
        <mxCell id="fUTgCYwdAWdXHMsG8nzH-26" value="&lt;div&gt;&lt;font style=&quot;font-size: 10px;&quot;&gt;♀ &lt;b&gt;Andjeni Rinia&lt;br&gt;&lt;/b&gt;&lt;/font&gt;&lt;/div&gt;&lt;div&gt;&lt;font style=&quot;font-size: 10px;&quot; size=&quot;3&quot;&gt;(19/08/1970)&lt;/font&gt;&lt;font size=&quot;3&quot;&gt;&lt;i&gt;&lt;br&gt;&lt;/i&gt;&lt;/font&gt;&lt;/div&gt;" style="rounded=1;whiteSpace=wrap;html=1;fillColor=#FFC0CB;strokeColor=#FF1493;fillStyle=auto;fontFamily=Verdana;fontSize=10;fontColor=#000000;" vertex="1" parent="1">
          <mxGeometry x="738.95" y="2079.08" width="84.69" height="80" as="geometry" />
        </mxCell>
        <mxCell id="fUTgCYwdAWdXHMsG8nzH-27" value="" style="line;strokeWidth=2;direction=south;html=1;fillStyle=auto;fontFamily=Verdana;fontSize=10;fillColor=#87CEFA;gradientColor=none;fontColor=#000000;" vertex="1" parent="1">
          <mxGeometry x="515.12" y="2159.08" width="10" height="40" as="geometry" />
        </mxCell>
        <UserObject label="&lt;div style=&quot;font-size: 9px;&quot;&gt;&lt;font style=&quot;font-size: 6px;&quot; size=&quot;3&quot;&gt;&lt;span lang=&quot;EN-US&quot;&gt;⚭23/05/2003 KH Klaver &lt;/span&gt;&lt;/font&gt;&lt;font style=&quot;font-size: 6px;&quot; size=&quot;3&quot;&gt;&lt;span lang=&quot;EN-US&quot;&gt;➝ &lt;/span&gt;&lt;span lang=&quot;EN-US&quot;&gt;⚮ 2012&lt;br&gt;&lt;/span&gt;&lt;/font&gt;&lt;/div&gt;&lt;div style=&quot;font-size: 9px;&quot;&gt;&lt;font style=&quot;font-size: 6px;&quot; size=&quot;3&quot;&gt;&lt;span lang=&quot;EN-US&quot;&gt;⚭ 15/08/2013 Sunildath Jankie&lt;/span&gt;&lt;/font&gt;&lt;font style=&quot;font-size: 9px;&quot; size=&quot;3&quot;&gt;&lt;span lang=&quot;EN-US&quot;&gt;&lt;/span&gt;&lt;/font&gt;&lt;font style=&quot;font-size: 9px;&quot; size=&quot;3&quot;&gt;&lt;span lang=&quot;EN-US&quot;&gt;&lt;/span&gt;&lt;/font&gt;&lt;font style=&quot;font-size: 9px;&quot; size=&quot;3&quot;&gt;&lt;span lang=&quot;EN-US&quot;&gt; &lt;/span&gt;&lt;/font&gt;&lt;/div&gt;&lt;div style=&quot;font-size: 9px;&quot;&gt;&lt;font style=&quot;font-size: 9px;&quot; size=&quot;3&quot;&gt;&lt;span lang=&quot;EN-US&quot;&gt;&lt;/span&gt;&lt;/font&gt;&lt;/div&gt;" placeholders="1" name="Variable" id="fUTgCYwdAWdXHMsG8nzH-28">
          <mxCell style="text;html=1;strokeColor=none;fillColor=none;align=center;verticalAlign=middle;whiteSpace=wrap;overflow=hidden;fillStyle=auto;fontFamily=Verdana;fontSize=10;opacity=50;fontColor=#000000;rotation=-90;" vertex="1" parent="1">
            <mxGeometry x="432.8299999999999" y="2146.23" width="129.08" height="42" as="geometry" />
          </mxCell>
        </UserObject>
        <mxCell id="fUTgCYwdAWdXHMsG8nzH-29" value="&lt;div&gt;&lt;font style=&quot;font-size: 10px;&quot; face=&quot;Verdana&quot;&gt;♂ &lt;b&gt;Bhagwan-persad Ramsaransing&lt;/b&gt;&lt;br&gt;&lt;/font&gt;&lt;/div&gt;&lt;div&gt;&lt;font style=&quot;font-size: 10px;&quot; face=&quot;Verdana&quot;&gt;(20/03/1960 -&amp;nbsp; &lt;/font&gt;&lt;font style=&quot;font-size: 10px;&quot; face=&quot;Verdana&quot;&gt;&lt;font style=&quot;font-size: 10px;&quot; size=&quot;3&quot;&gt;&lt;b&gt;†&lt;/b&gt;24/10/2008&lt;/font&gt;)&lt;/font&gt;&lt;/div&gt;" style="rounded=1;whiteSpace=wrap;html=1;fillStyle=auto;strokeColor=#00BFFF;fillColor=#87CEFA;gradientColor=none;fontFamily=Verdana;fontSize=10;fontColor=#000000;" vertex="1" parent="1">
          <mxGeometry x="599.64" y="2168.08" width="85" height="80" as="geometry" />
        </mxCell>
        <mxCell id="fUTgCYwdAWdXHMsG8nzH-30" value="" style="line;strokeWidth=2;html=1;fillStyle=auto;fontFamily=Verdana;fontSize=10;fillColor=#87CEFA;gradientColor=none;fontColor=#000000;" vertex="1" parent="1">
          <mxGeometry x="520.48" y="2196.08" width="79.16" height="10" as="geometry" />
        </mxCell>
        <UserObject label="&lt;font style=&quot;font-size: 8px;&quot;&gt;&lt;span lang=&quot;EN-US&quot;&gt;⚭ 10/09/1983 &lt;/span&gt;&lt;span lang=&quot;EN-US&quot;&gt;➝ &lt;/span&gt;&lt;span lang=&quot;EN-US&quot;&gt;&lt;span lang=&quot;EN-US&quot;&gt;⚮ 1996&lt;br&gt;&lt;/span&gt;&lt;/span&gt;&lt;/font&gt;" placeholders="1" name="Variable" id="fUTgCYwdAWdXHMsG8nzH-31">
          <mxCell style="text;html=1;strokeColor=none;fillColor=none;align=center;verticalAlign=middle;whiteSpace=wrap;overflow=hidden;fillStyle=auto;fontFamily=Verdana;fontSize=10;opacity=50;fontColor=#000000;" vertex="1" parent="1">
            <mxGeometry x="521.84" y="2164.58" width="79.16" height="33" as="geometry" />
          </mxCell>
        </UserObject>
        <mxCell id="fUTgCYwdAWdXHMsG8nzH-32" value="&lt;div&gt;&lt;font style=&quot;font-size: 10px;&quot;&gt;♀ &lt;b&gt;&lt;br&gt;&lt;/b&gt;&lt;/font&gt;&lt;/div&gt;&lt;div&gt;&lt;font style=&quot;font-size: 10px;&quot;&gt;&lt;b&gt;Radjkoemarie Marijke&lt;br&gt;&lt;/b&gt;&lt;/font&gt;&lt;/div&gt;&lt;div&gt;&lt;font style=&quot;font-size: 10px;&quot; size=&quot;3&quot;&gt;(02/07/1955)&lt;/font&gt;&lt;font size=&quot;3&quot;&gt;&lt;i&gt;&lt;br&gt;&lt;/i&gt;&lt;/font&gt;&lt;/div&gt;" style="rounded=1;whiteSpace=wrap;html=1;fillColor=#FFC0CB;strokeColor=#FF1493;fillStyle=auto;fontFamily=Verdana;fontSize=10;fontColor=#000000;" vertex="1" parent="1">
          <mxGeometry x="4.949999999999989" y="2080.08" width="84.69" height="80" as="geometry" />
        </mxCell>
        <mxCell id="fUTgCYwdAWdXHMsG8nzH-33" value="" style="strokeWidth=2;html=1;shape=mxgraph.flowchart.annotation_2;align=left;labelPosition=right;pointerEvents=1;fillStyle=auto;fontFamily=Verdana;fontSize=10;fillColor=#87CEFA;gradientColor=none;rotation=90;fontColor=#000000;" vertex="1" parent="1">
          <mxGeometry x="489.63" y="2186.4" width="61" height="79.98" as="geometry" />
        </mxCell>
        <mxCell id="fUTgCYwdAWdXHMsG8nzH-34" value="&lt;div&gt;&lt;font style=&quot;font-size: 10px;&quot;&gt;♀ &lt;b&gt;Amrita Soenaina&lt;br&gt;&lt;/b&gt;&lt;/font&gt;&lt;/div&gt;&lt;div&gt;&lt;font style=&quot;font-size: 10px;&quot; size=&quot;3&quot;&gt;(04/08/1987)&lt;/font&gt;&lt;font size=&quot;3&quot;&gt;&lt;i&gt;&lt;br&gt;&lt;/i&gt;&lt;/font&gt;&lt;/div&gt;" style="rounded=1;whiteSpace=wrap;html=1;fillColor=#FFC0CB;strokeColor=#FF1493;fillStyle=auto;fontFamily=Verdana;fontSize=10;fontColor=#000000;" vertex="1" parent="1">
          <mxGeometry x="521.62" y="2258.08" width="84.69" height="80" as="geometry" />
        </mxCell>
        <mxCell id="fUTgCYwdAWdXHMsG8nzH-35" value="&lt;div&gt;&lt;font style=&quot;font-size: 10px;&quot;&gt;♀ &lt;b&gt;Tanuja Kaadjal&lt;br&gt;&lt;/b&gt;&lt;/font&gt;&lt;/div&gt;&lt;div&gt;&lt;font style=&quot;font-size: 10px;&quot; size=&quot;3&quot;&gt;(20/09/1985)&lt;/font&gt;&lt;font size=&quot;3&quot;&gt;&lt;i&gt;&lt;br&gt;&lt;/i&gt;&lt;/font&gt;&lt;/div&gt;" style="rounded=1;whiteSpace=wrap;html=1;fillColor=#FFC0CB;strokeColor=#FF1493;fillStyle=auto;fontFamily=Verdana;fontSize=10;fontColor=#000000;" vertex="1" parent="1">
          <mxGeometry x="435.78999999999996" y="2258.08" width="84.69" height="80" as="geometry" />
        </mxCell>
        <mxCell id="fUTgCYwdAWdXHMsG8nzH-36" value="&lt;div align=&quot;center&quot;&gt;&lt;br&gt;&lt;/div&gt;" style="shape=umlActor;verticalLabelPosition=bottom;verticalAlign=top;html=1;outlineConnect=0;fillStyle=auto;fontFamily=Verdana;fontSize=10;fontColor=#000000;strokeColor=#00BFFF;strokeWidth=2;fillColor=#87CEFA;gradientColor=none;align=center;" vertex="1" parent="1">
          <mxGeometry x="191.95" y="2181.08" width="14.69" height="20" as="geometry" />
        </mxCell>
        <mxCell id="fUTgCYwdAWdXHMsG8nzH-37" value="" style="line;strokeWidth=2;direction=south;html=1;fillStyle=auto;fontFamily=Verdana;fontSize=10;fillColor=#87CEFA;gradientColor=none;fontColor=#000000;" vertex="1" parent="1">
          <mxGeometry x="195.95" y="2160.08" width="10" height="20" as="geometry" />
        </mxCell>
        <UserObject label="&lt;span lang=&quot;EN-US&quot;&gt;⚭ &lt;font color=&quot;#00BFFF&quot;&gt;&lt;i&gt;Biervliet&lt;/i&gt;&lt;/font&gt;&lt;/span&gt;&lt;span lang=&quot;EN-US&quot;&gt;&lt;br&gt;&lt;/span&gt;" placeholders="1" name="Variable" id="fUTgCYwdAWdXHMsG8nzH-38">
          <mxCell style="text;html=1;strokeColor=none;fillColor=none;align=center;verticalAlign=middle;whiteSpace=wrap;overflow=hidden;fillStyle=auto;fontFamily=Verdana;fontSize=10;opacity=50;fontColor=#000000;" vertex="1" parent="1">
            <mxGeometry x="2.4599999999999795" y="2158.93" width="89.68" height="18.3" as="geometry" />
          </mxCell>
        </UserObject>
        <mxCell id="fUTgCYwdAWdXHMsG8nzH-39" value="&lt;div align=&quot;center&quot;&gt;&lt;br&gt;&lt;/div&gt;" style="shape=umlActor;verticalLabelPosition=bottom;verticalAlign=top;html=1;outlineConnect=0;fillStyle=auto;fontFamily=Verdana;fontSize=10;fontColor=#000000;strokeColor=#00BFFF;strokeWidth=2;fillColor=#87CEFA;gradientColor=none;align=center;" vertex="1" parent="1">
          <mxGeometry x="207.95" y="2181.08" width="14.69" height="20" as="geometry" />
        </mxCell>
        <mxCell id="fUTgCYwdAWdXHMsG8nzH-40" value="Melvin" style="text;html=1;strokeColor=none;fillColor=none;align=center;verticalAlign=middle;whiteSpace=wrap;rounded=0;fillStyle=auto;fontFamily=Verdana;fontSize=8;fontColor=#000000;rotation=-90;" vertex="1" parent="1">
          <mxGeometry x="176.64" y="2213.08" width="40" height="18" as="geometry" />
        </mxCell>
        <mxCell id="fUTgCYwdAWdXHMsG8nzH-41" value="Patrick" style="text;html=1;strokeColor=none;fillColor=none;align=center;verticalAlign=middle;whiteSpace=wrap;rounded=0;fillStyle=auto;fontFamily=Verdana;fontSize=8;fontColor=#000000;rotation=-90;" vertex="1" parent="1">
          <mxGeometry x="191.94999999999993" y="2213.08" width="40" height="18" as="geometry" />
        </mxCell>
        <mxCell id="fUTgCYwdAWdXHMsG8nzH-42" value="&lt;div align=&quot;center&quot;&gt;&lt;br&gt;&lt;/div&gt;" style="shape=umlActor;verticalLabelPosition=bottom;verticalAlign=top;html=1;outlineConnect=0;fillStyle=auto;fontFamily=Verdana;fontSize=10;fontColor=#000000;strokeColor=#00BFFF;strokeWidth=2;fillColor=#87CEFA;gradientColor=none;align=center;" vertex="1" parent="1">
          <mxGeometry x="275.14" y="2181.08" width="14.69" height="20" as="geometry" />
        </mxCell>
        <mxCell id="fUTgCYwdAWdXHMsG8nzH-43" value="&lt;div align=&quot;center&quot;&gt;&lt;br&gt;&lt;/div&gt;" style="shape=umlActor;verticalLabelPosition=bottom;verticalAlign=top;html=1;outlineConnect=0;fillStyle=auto;fontFamily=Verdana;fontSize=10;fontColor=#000000;strokeColor=#00BFFF;strokeWidth=2;fillColor=#87CEFA;gradientColor=none;align=center;" vertex="1" parent="1">
          <mxGeometry x="349.64" y="2181.08" width="14.69" height="20" as="geometry" />
        </mxCell>
        <mxCell id="fUTgCYwdAWdXHMsG8nzH-44" value="" style="shape=umlActor;verticalLabelPosition=bottom;verticalAlign=top;html=1;outlineConnect=0;fillStyle=auto;fontFamily=Verdana;fontSize=10;fontColor=#000000;strokeColor=#FF1493;strokeWidth=2;fillColor=#FFC0CB;gradientColor=none;" vertex="1" parent="1">
          <mxGeometry x="334.63" y="2181.08" width="15.01" height="20" as="geometry" />
        </mxCell>
        <mxCell id="fUTgCYwdAWdXHMsG8nzH-45" value="" style="shape=umlActor;verticalLabelPosition=bottom;verticalAlign=top;html=1;outlineConnect=0;fillStyle=auto;fontFamily=Verdana;fontSize=10;fontColor=#000000;strokeColor=#FF1493;strokeWidth=2;fillColor=#FFC0CB;gradientColor=none;" vertex="1" parent="1">
          <mxGeometry x="304.8399999999999" y="2181.08" width="15.01" height="20" as="geometry" />
        </mxCell>
        <mxCell id="fUTgCYwdAWdXHMsG8nzH-46" value="" style="shape=umlActor;verticalLabelPosition=bottom;verticalAlign=top;html=1;outlineConnect=0;fillStyle=auto;fontFamily=Verdana;fontSize=10;fontColor=#000000;strokeColor=#FF1493;strokeWidth=2;fillColor=#FFC0CB;gradientColor=none;" vertex="1" parent="1">
          <mxGeometry x="319.8499999999999" y="2181.08" width="15.01" height="20" as="geometry" />
        </mxCell>
        <mxCell id="fUTgCYwdAWdXHMsG8nzH-47" value="" style="shape=umlActor;verticalLabelPosition=bottom;verticalAlign=top;html=1;outlineConnect=0;fillStyle=auto;fontFamily=Verdana;fontSize=10;fontColor=#000000;strokeColor=#FF1493;strokeWidth=2;fillColor=#FFC0CB;gradientColor=none;" vertex="1" parent="1">
          <mxGeometry x="289.8299999999999" y="2181.08" width="15.01" height="20" as="geometry" />
        </mxCell>
        <mxCell id="fUTgCYwdAWdXHMsG8nzH-48" value="" style="line;strokeWidth=2;direction=south;html=1;fillStyle=auto;fontFamily=Verdana;fontSize=10;fillColor=#87CEFA;gradientColor=none;fontColor=#000000;" vertex="1" parent="1">
          <mxGeometry x="287.31999999999994" y="2160.08" width="10" height="20" as="geometry" />
        </mxCell>
        <UserObject label="&lt;span lang=&quot;EN-US&quot;&gt;⚭ &lt;/span&gt;&lt;i&gt;&lt;font color=&quot;#00BFFF&quot;&gt;&lt;span lang=&quot;EN-US&quot;&gt;Baljeu &lt;/span&gt;&lt;/font&gt;&lt;/i&gt;&lt;span lang=&quot;EN-US&quot;&gt;&lt;font style=&quot;font-size: 10px;&quot; face=&quot;Verdana&quot;&gt;&lt;b&gt;†&lt;/b&gt;&lt;/font&gt;&amp;nbsp; &lt;/span&gt;" placeholders="1" name="Variable" id="fUTgCYwdAWdXHMsG8nzH-49">
          <mxCell style="text;html=1;strokeColor=none;fillColor=none;align=center;verticalAlign=middle;whiteSpace=wrap;overflow=hidden;fillStyle=auto;fontFamily=Verdana;fontSize=10;opacity=50;fontColor=#000000;" vertex="1" parent="1">
            <mxGeometry x="201.64" y="2159.08" width="65.69" height="20" as="geometry" />
          </mxCell>
        </UserObject>
        <UserObject label="&lt;span lang=&quot;EN-US&quot;&gt;⚭ &lt;/span&gt;&lt;span lang=&quot;EN-US&quot;&gt;&lt;i&gt;&lt;font color=&quot;#00BFFF&quot;&gt;Gharbaran &lt;/font&gt;&lt;/i&gt;&lt;br&gt;&lt;/span&gt;" placeholders="1" name="Variable" id="fUTgCYwdAWdXHMsG8nzH-50">
          <mxCell style="text;html=1;strokeColor=none;fillColor=none;align=center;verticalAlign=middle;whiteSpace=wrap;overflow=hidden;fillStyle=auto;fontFamily=Verdana;fontSize=10;opacity=50;fontColor=#000000;" vertex="1" parent="1">
            <mxGeometry x="293.8299999999999" y="2156.38" width="73" height="23.7" as="geometry" />
          </mxCell>
        </UserObject>
        <mxCell id="fUTgCYwdAWdXHMsG8nzH-51" value="&lt;font style=&quot;font-size: 10px;&quot; face=&quot;Verdana&quot;&gt;&lt;b&gt;†&lt;/b&gt;&lt;/font&gt;" style="text;html=1;strokeColor=none;fillColor=none;align=center;verticalAlign=middle;whiteSpace=wrap;rounded=0;fillStyle=auto;fontFamily=Verdana;fontSize=8;fontColor=#000000;rotation=0;" vertex="1" parent="1">
          <mxGeometry x="262.48999999999995" y="2197.58" width="40" height="18" as="geometry" />
        </mxCell>
        <mxCell id="fUTgCYwdAWdXHMsG8nzH-52" value="Soraya" style="text;html=1;strokeColor=none;fillColor=none;align=center;verticalAlign=middle;whiteSpace=wrap;rounded=0;fillStyle=auto;fontFamily=Verdana;fontSize=8;fontColor=#000000;rotation=-90;" vertex="1" parent="1">
          <mxGeometry x="275.14" y="2213.08" width="40" height="18" as="geometry" />
        </mxCell>
        <mxCell id="fUTgCYwdAWdXHMsG8nzH-53" value="Sandhya" style="text;html=1;strokeColor=none;fillColor=none;align=center;verticalAlign=middle;whiteSpace=wrap;rounded=0;fillStyle=auto;fontFamily=Verdana;fontSize=8;fontColor=#000000;rotation=-90;" vertex="1" parent="1">
          <mxGeometry x="290.95000000000005" y="2213.08" width="40" height="18" as="geometry" />
        </mxCell>
        <mxCell id="fUTgCYwdAWdXHMsG8nzH-54" value="Nalini" style="text;html=1;strokeColor=none;fillColor=none;align=center;verticalAlign=middle;whiteSpace=wrap;rounded=0;fillStyle=auto;fontFamily=Verdana;fontSize=8;fontColor=#000000;rotation=-90;" vertex="1" parent="1">
          <mxGeometry x="306.3299999999999" y="2213.08" width="40" height="18" as="geometry" />
        </mxCell>
        <mxCell id="fUTgCYwdAWdXHMsG8nzH-55" value="Karishma" style="text;html=1;strokeColor=none;fillColor=none;align=center;verticalAlign=middle;whiteSpace=wrap;rounded=0;fillStyle=auto;fontFamily=Verdana;fontSize=8;fontColor=#000000;rotation=-90;" vertex="1" parent="1">
          <mxGeometry x="319.8499999999999" y="2213.08" width="40" height="18" as="geometry" />
        </mxCell>
        <mxCell id="fUTgCYwdAWdXHMsG8nzH-56" value="Vishnu" style="text;html=1;strokeColor=none;fillColor=none;align=center;verticalAlign=middle;whiteSpace=wrap;rounded=0;fillStyle=auto;fontFamily=Verdana;fontSize=8;fontColor=#000000;rotation=-90;" vertex="1" parent="1">
          <mxGeometry x="334.95000000000005" y="2213.08" width="40" height="18" as="geometry" />
        </mxCell>
        <UserObject label="&lt;span lang=&quot;EN-US&quot;&gt;&lt;span lang=&quot;EN-US&quot;&gt;⚮&lt;/span&gt; &lt;font color=&quot;#FF1493&quot;&gt;&lt;i&gt;Ramsaransing&lt;/i&gt;&lt;/font&gt;&lt;/span&gt;" placeholders="1" name="Variable" id="fUTgCYwdAWdXHMsG8nzH-57">
          <mxCell style="text;html=1;strokeColor=none;fillColor=none;align=center;verticalAlign=middle;whiteSpace=wrap;overflow=hidden;fillStyle=auto;fontFamily=Verdana;fontSize=10;opacity=50;fontColor=#000000;" vertex="1" parent="1">
            <mxGeometry x="379.64" y="2152.08" width="100" height="28" as="geometry" />
          </mxCell>
        </UserObject>
        <mxCell id="fUTgCYwdAWdXHMsG8nzH-58" value="" style="line;strokeWidth=2;direction=south;html=1;fillStyle=auto;fontFamily=Verdana;fontSize=10;fillColor=#87CEFA;gradientColor=none;fontColor=#000000;" vertex="1" parent="1">
          <mxGeometry x="378.03" y="2157.23" width="10" height="20" as="geometry" />
        </mxCell>
        <mxCell id="fUTgCYwdAWdXHMsG8nzH-59" value="" style="line;strokeWidth=2;direction=south;html=1;fillStyle=auto;fontFamily=Verdana;fontSize=10;fillColor=#87CEFA;gradientColor=none;fontColor=#000000;" vertex="1" parent="1">
          <mxGeometry x="714.64" y="2158.93" width="10" height="20" as="geometry" />
        </mxCell>
        <mxCell id="fUTgCYwdAWdXHMsG8nzH-60" value="" style="line;strokeWidth=2;direction=south;html=1;fillStyle=auto;fontFamily=Verdana;fontSize=10;fillColor=#87CEFA;gradientColor=none;fontColor=#000000;" vertex="1" parent="1">
          <mxGeometry x="809.6399999999999" y="2158.93" width="10" height="20" as="geometry" />
        </mxCell>
        <mxCell id="fUTgCYwdAWdXHMsG8nzH-61" value="" style="shape=umlActor;verticalLabelPosition=bottom;verticalAlign=top;html=1;outlineConnect=0;fillStyle=auto;fontFamily=Verdana;fontSize=10;fontColor=#000000;strokeColor=#FF1493;strokeWidth=2;fillColor=#FFC0CB;gradientColor=none;" vertex="1" parent="1">
          <mxGeometry x="390.53" y="2178.93" width="15.01" height="20" as="geometry" />
        </mxCell>
        <mxCell id="fUTgCYwdAWdXHMsG8nzH-62" value="" style="shape=umlActor;verticalLabelPosition=bottom;verticalAlign=top;html=1;outlineConnect=0;fillStyle=auto;fontFamily=Verdana;fontSize=10;fontColor=#000000;strokeColor=#FF1493;strokeWidth=2;fillColor=#FFC0CB;gradientColor=none;" vertex="1" parent="1">
          <mxGeometry x="375.52" y="2179.08" width="15.01" height="20" as="geometry" />
        </mxCell>
        <mxCell id="fUTgCYwdAWdXHMsG8nzH-63" value="" style="shape=umlActor;verticalLabelPosition=bottom;verticalAlign=top;html=1;outlineConnect=0;fillStyle=auto;fontFamily=Verdana;fontSize=10;fontColor=#000000;strokeColor=#FF1493;strokeWidth=2;fillColor=#FFC0CB;gradientColor=none;" vertex="1" parent="1">
          <mxGeometry x="405.64" y="2178.93" width="15.01" height="20" as="geometry" />
        </mxCell>
        <mxCell id="fUTgCYwdAWdXHMsG8nzH-64" value="&lt;div align=&quot;center&quot;&gt;&lt;br&gt;&lt;/div&gt;" style="shape=umlActor;verticalLabelPosition=bottom;verticalAlign=top;html=1;outlineConnect=0;fillStyle=auto;fontFamily=Verdana;fontSize=10;fontColor=#000000;strokeColor=#00BFFF;strokeWidth=2;fillColor=#87CEFA;gradientColor=none;align=center;" vertex="1" parent="1">
          <mxGeometry x="421.0999999999999" y="2178.93" width="14.69" height="20" as="geometry" />
        </mxCell>
        <mxCell id="fUTgCYwdAWdXHMsG8nzH-65" value="&lt;div align=&quot;center&quot;&gt;&lt;br&gt;&lt;/div&gt;" style="shape=umlActor;verticalLabelPosition=bottom;verticalAlign=top;html=1;outlineConnect=0;fillStyle=auto;fontFamily=Verdana;fontSize=10;fontColor=#000000;strokeColor=#00BFFF;strokeWidth=2;fillColor=#87CEFA;gradientColor=none;align=center;" vertex="1" parent="1">
          <mxGeometry x="696.64" y="2180.08" width="14.69" height="20" as="geometry" />
        </mxCell>
        <mxCell id="fUTgCYwdAWdXHMsG8nzH-66" value="&lt;div align=&quot;center&quot;&gt;&lt;br&gt;&lt;/div&gt;" style="shape=umlActor;verticalLabelPosition=bottom;verticalAlign=top;html=1;outlineConnect=0;fillStyle=auto;fontFamily=Verdana;fontSize=10;fontColor=#000000;strokeColor=#00BFFF;strokeWidth=2;fillColor=#87CEFA;gradientColor=none;align=center;" vertex="1" parent="1">
          <mxGeometry x="711.33" y="2180.08" width="14.69" height="20" as="geometry" />
        </mxCell>
        <mxCell id="fUTgCYwdAWdXHMsG8nzH-67" value="" style="shape=umlActor;verticalLabelPosition=bottom;verticalAlign=top;html=1;outlineConnect=0;fillStyle=auto;fontFamily=Verdana;fontSize=10;fontColor=#000000;strokeColor=#FF1493;strokeWidth=2;fillColor=#FFC0CB;gradientColor=none;" vertex="1" parent="1">
          <mxGeometry x="784.63" y="2178.93" width="15.01" height="20" as="geometry" />
        </mxCell>
        <mxCell id="fUTgCYwdAWdXHMsG8nzH-68" value="&lt;div align=&quot;center&quot;&gt;&lt;br&gt;&lt;/div&gt;" style="shape=umlActor;verticalLabelPosition=bottom;verticalAlign=top;html=1;outlineConnect=0;fillStyle=auto;fontFamily=Verdana;fontSize=10;fontColor=#000000;strokeColor=#00BFFF;strokeWidth=2;fillColor=#87CEFA;gradientColor=none;align=center;" vertex="1" parent="1">
          <mxGeometry x="799.9499999999998" y="2178.93" width="14.69" height="20" as="geometry" />
        </mxCell>
        <mxCell id="fUTgCYwdAWdXHMsG8nzH-69" value="Aruna" style="text;html=1;strokeColor=none;fillColor=none;align=center;verticalAlign=middle;whiteSpace=wrap;rounded=0;fillStyle=auto;fontFamily=Verdana;fontSize=8;fontColor=#000000;rotation=-90;" vertex="1" parent="1">
          <mxGeometry x="361.02" y="2206.08" width="40" height="18" as="geometry" />
        </mxCell>
        <mxCell id="fUTgCYwdAWdXHMsG8nzH-70" value="Priya" style="text;html=1;strokeColor=none;fillColor=none;align=center;verticalAlign=middle;whiteSpace=wrap;rounded=0;fillStyle=auto;fontFamily=Verdana;fontSize=8;fontColor=#000000;rotation=-90;" vertex="1" parent="1">
          <mxGeometry x="374.95000000000005" y="2206.08" width="40" height="18" as="geometry" />
        </mxCell>
        <mxCell id="fUTgCYwdAWdXHMsG8nzH-71" value="Ishana" style="text;html=1;strokeColor=none;fillColor=none;align=center;verticalAlign=middle;whiteSpace=wrap;rounded=0;fillStyle=auto;fontFamily=Verdana;fontSize=8;fontColor=#000000;rotation=-90;" vertex="1" parent="1">
          <mxGeometry x="390.53" y="2209.08" width="40" height="18" as="geometry" />
        </mxCell>
        <mxCell id="fUTgCYwdAWdXHMsG8nzH-72" value="Ruchir" style="text;html=1;strokeColor=none;fillColor=none;align=center;verticalAlign=middle;whiteSpace=wrap;rounded=0;fillStyle=auto;fontFamily=Verdana;fontSize=8;fontColor=#000000;rotation=-90;" vertex="1" parent="1">
          <mxGeometry x="405.8499999999999" y="2209.08" width="40" height="18" as="geometry" />
        </mxCell>
        <mxCell id="fUTgCYwdAWdXHMsG8nzH-73" value="Shivant" style="text;html=1;strokeColor=none;fillColor=none;align=center;verticalAlign=middle;whiteSpace=wrap;rounded=0;fillStyle=auto;fontFamily=Verdana;fontSize=8;fontColor=#000000;rotation=-90;" vertex="1" parent="1">
          <mxGeometry x="683.99" y="2213.08" width="40" height="18" as="geometry" />
        </mxCell>
        <mxCell id="fUTgCYwdAWdXHMsG8nzH-74" value="Gyan" style="text;html=1;strokeColor=none;fillColor=none;align=center;verticalAlign=middle;whiteSpace=wrap;rounded=0;fillStyle=auto;fontFamily=Verdana;fontSize=8;fontColor=#000000;rotation=-90;" vertex="1" parent="1">
          <mxGeometry x="699.64" y="2213.08" width="40" height="18" as="geometry" />
        </mxCell>
        <mxCell id="fUTgCYwdAWdXHMsG8nzH-75" value="Santoesha" style="text;html=1;strokeColor=none;fillColor=none;align=center;verticalAlign=middle;whiteSpace=wrap;rounded=0;fillStyle=auto;fontFamily=Verdana;fontSize=8;fontColor=#000000;rotation=-90;" vertex="1" parent="1">
          <mxGeometry x="772.14" y="2217.39" width="40" height="18" as="geometry" />
        </mxCell>
        <mxCell id="fUTgCYwdAWdXHMsG8nzH-76" value="Avinash" style="text;html=1;strokeColor=none;fillColor=none;align=center;verticalAlign=middle;whiteSpace=wrap;rounded=0;fillStyle=auto;fontFamily=Verdana;fontSize=8;fontColor=#000000;rotation=-90;" vertex="1" parent="1">
          <mxGeometry x="787.3" y="2213.08" width="40" height="18" as="geometry" />
        </mxCell>
        <UserObject label="&lt;font color=&quot;#000000&quot;&gt;&lt;span lang=&quot;EN-US&quot;&gt;&lt;span lang=&quot;EN-US&quot;&gt;⚮&lt;/span&gt;&lt;/span&gt;&lt;span lang=&quot;EN-US&quot;&gt;&lt;/span&gt;&lt;/font&gt; &lt;i&gt;&lt;font color=&quot;#00BFFF&quot;&gt;Orie&lt;/font&gt;&lt;/i&gt;" placeholders="1" name="Variable" id="fUTgCYwdAWdXHMsG8nzH-77">
          <mxCell style="text;html=1;strokeColor=none;fillColor=none;align=center;verticalAlign=middle;whiteSpace=wrap;overflow=hidden;fillStyle=auto;fontFamily=Verdana;fontSize=10;opacity=50;fontColor=#FF1493;" vertex="1" parent="1">
            <mxGeometry x="749.2199999999999" y="2156.23" width="66.21" height="22" as="geometry" />
          </mxCell>
        </UserObject>
        <UserObject label="&lt;span lang=&quot;EN-US&quot;&gt;⚭&amp;nbsp;&lt;/span&gt;&lt;span lang=&quot;EN-US&quot;&gt; &lt;br&gt;&lt;/span&gt;" placeholders="1" name="Variable" id="fUTgCYwdAWdXHMsG8nzH-78">
          <mxCell style="text;html=1;strokeColor=none;fillColor=none;align=center;verticalAlign=middle;whiteSpace=wrap;overflow=hidden;fillStyle=auto;fontFamily=Verdana;fontSize=10;opacity=50;fontColor=#000000;" vertex="1" parent="1">
            <mxGeometry x="479.64" y="2010.08" width="179.38" height="50" as="geometry" />
          </mxCell>
        </UserObject>
        <mxCell id="fUTgCYwdAWdXHMsG8nzH-79" value="" style="line;strokeWidth=2;direction=south;html=1;fillStyle=auto;fontFamily=Verdana;fontSize=10;fillColor=#87CEFA;gradientColor=none;fontColor=#000000;" vertex="1" parent="1">
          <mxGeometry x="813.6399999999999" y="2061.08" width="10" height="21" as="geometry" />
        </mxCell>
      </root>
    </mxGraphModel>
  </diagram>
</mxfile>
